<svg width="128" height="113" viewBox="0 0 128 113" xmlns="http://www.w3.org/2000/svg">
    <defs>
        <clipPath id="clip0_236_138">
            <path fill="#000000" stroke="none" d="M 0 0 L 128 0 L 128 112.635 L 0 112.635 Z"/>
        </clipPath>
    </defs>
    <g clip-path="url(#clip0_236_138)">
        <path fill="#05bdba" stroke="none" d="M 34.593 94.05001 L 33.384 94.05001 L 27.351 88.018005 L 27.351 86.809 L 36.574 77.587 L 42.963997 77.587 L 43.816 78.439 L 43.816 84.829 Z M 27.351 25.816 L 27.351 24.607002 L 33.384 18.574 L 34.593 18.574 L 43.816 27.796999 L 43.816 34.187 L 42.963997 35.039 L 36.574 35.039 Z M 35.841 61.45 L 0.733 61.45 L 0 60.714996 L 0 51.918 L 0.733 51.185005 L 35.841 51.185005 L 36.574 51.918 L 36.574 60.714996 Z M 127.27701 61.45 L 92.169 61.45 L 91.436005 60.716 L 91.436005 51.918995 L 92.169 51.186 L 127.27701 51.186 L 128.01 51.918995 L 128.01 60.716 Z M 58.943 27.064 L 58.943 0.734 L 59.675995 0 L 68.473 0 L 69.206 0.733 L 69.206 27.064 L 68.473 27.796999 L 59.675995 27.796999 Z M 58.943 111.902 L 58.943 85.572 L 59.675995 84.838 L 68.473 84.838 L 69.206 85.571 L 69.206 111.902 L 68.473 112.635 L 59.675995 112.635 Z"/>
        <path fill="#014847" stroke="none" d="M 80.46 74.605 L 71.682 74.605 L 70.949 73.872 L 70.949 53.325996 C 70.949 49.670002 69.513 46.837 65.105 46.737995 C 62.836 46.678 60.24 46.737995 57.467 46.848 L 57.051 47.273003 L 57.051 73.862 L 56.318005 74.595 L 47.539997 74.595 L 46.807 73.862 L 46.807 38.764 L 47.539997 38.031 L 67.293 38.031 C 74.97 38.031 81.191 44.251 81.191 51.929 L 81.191 73.872 Z"/>
    </g>
</svg>
